<?xml version="1.0" encoding="utf-8"?>
<!-- Generator: Adobe Illustrator 24.3.0, SVG Export Plug-In . SVG Version: 6.00 Build 0)  -->
<svg version="1.1" id="Capa_1" xmlns="http://www.w3.org/2000/svg" xmlns:xlink="http://www.w3.org/1999/xlink" x="0px" y="0px"
	 viewBox="0 0 90 47" style="enable-background:new 0 0 90 47;" xml:space="preserve">
<style type="text/css">
	.st0{fill:#020203;}
	.st1{fill:#FFFFFF;}
</style>
<g>
	<path class="st1" d="M34.33,39L34.33,39 M41.9,39.64c-0.22-0.66-0.19-0.91-0.5-1.29c-0.13-0.16-0.38-0.48-1.47-0.81
		c-0.5-0.15-1.01-0.31-1.51-0.46c-0.85-0.25-1.69-0.51-2.53-0.77c-0.85-0.26-1.69-0.52-2.53-0.78c-0.85-0.26-1.69-0.52-2.53-0.78
		c-0.84-0.26-1.69-0.52-2.53-0.78c-0.85-0.26-1.69-0.52-2.53-0.78c-0.85-0.26-1.69-0.52-2.53-0.78c-0.84-0.26-1.69-0.52-2.53-0.78
		c-0.84-0.26-1.69-0.52-2.53-0.78c-0.85-0.26-1.69-0.52-2.53-0.78c-0.85-0.26-1.69-0.52-2.53-0.78c-0.84-0.26-1.67-0.52-2.51-0.77
		c-0.41-0.12-0.81-0.27-1.22-0.39c-0.37-0.1-0.8-0.14-1.17-0.02C7.82,28.25,7.58,28.59,7.72,29l0.5,0.5
		c0.38,0.21,0.81,0.31,1.22,0.44c4.72,1.52,9.44,2.98,14.17,4.45l0.36,0.11c0.94,0.29,1.89,0.59,2.83,0.88l0.01,0l5.52,1.72
		l-6.33-1.05L25.62,36c-0.91-0.16-1.81-0.32-2.72-0.48l-0.04,0v0c-5.23-0.92-10.46-1.85-15.7-2.73l-0.41-0.05
		c-0.42-0.05-0.85-0.14-1.27-0.18c-0.38-0.04-0.81-0.01-1.15,0.18C3.98,32.93,3.8,33.31,4,33.68l0.58,0.4
		c0.41,0.13,0.85,0.17,1.27,0.22c0.65,0.09,1.3,0.19,1.95,0.28c5.75,1.04,11.49,2.07,17.24,3.1c0.76,0.13,1.51,0.27,2.26,0.41
		l0.17,0.09l4.99,1.01l-1.32-0.1l-4.25-0.33l-1.99-0.16l-0.3-0.02l-2.71-0.21c-6.2-0.51-12.39-1.01-18.59-1.52l-0.03,0L2.68,36.8
		c-0.86-0.07-0.96-0.08-1.28-0.09c-0.39-0.01-0.81,0.05-1.13,0.26L0,37.94l0.6,0.37c0.42,0.11,0.86,0.11,1.29,0.14
		c0.76,0.06,1.51,0.11,2.27,0.17c11.12,1.02,22.24,2.04,33.37,2.97c0.31,0.03,0.95,0.11,1.69,0.45c1.08,0.51,1.56,1.24,2.15,1.83
		c0.67,0.65,1.76,1.4,3.63,1.78l0-2.27c-0.87-0.52-1.44-1.1-1.78-1.51C42.92,41.52,42.29,40.77,41.9,39.64z"/>
	<path class="st1" d="M55.66,39L55.66,39 M46.78,41.87c-0.34,0.41-0.91,0.99-1.79,1.51l0,2.27c1.88-0.38,2.97-1.13,3.63-1.78
		c0.59-0.58,1.07-1.31,2.15-1.83c0.74-0.35,1.39-0.43,1.69-0.45c11.12-0.93,22.25-1.96,33.37-2.97c0.76-0.05,1.52-0.11,2.27-0.17
		c0.43-0.03,0.86-0.03,1.28-0.14L90,37.94l-0.26-0.97c-0.33-0.21-0.75-0.27-1.14-0.26c-0.33,0.01-0.42,0.03-1.28,0.09l-0.58,0.04
		l-0.04,0c-6.2,0.51-12.4,1.01-18.59,1.52l-2.72,0.21l-0.29,0.02l-2,0.16l-4.24,0.33l-1.32,0.1l4.99-1.01l0.17-0.09
		c0.76-0.14,1.51-0.27,2.26-0.41c5.75-1.03,11.49-2.06,17.24-3.1c0.65-0.09,1.3-0.18,1.95-0.28c0.43-0.06,0.86-0.09,1.27-0.22
		l0.58-0.4c0.2-0.38,0.02-0.75-0.33-0.95c-0.34-0.19-0.77-0.22-1.15-0.18c-0.42,0.04-0.85,0.13-1.27,0.18l-0.41,0.05
		c-5.24,0.88-10.47,1.81-15.7,2.73v0l-0.04,0c-0.91,0.16-1.81,0.32-2.72,0.48l-0.37,0.04l-6.33,1.05l5.52-1.72l0.01,0
		c0.94-0.29,1.89-0.59,2.83-0.88l0.35-0.11c4.73-1.47,9.46-2.93,14.18-4.45c0.41-0.13,0.83-0.24,1.22-0.44l0.5-0.5
		c0.14-0.4-0.1-0.75-0.48-0.88c-0.37-0.13-0.79-0.09-1.17,0.02c-0.41,0.12-0.81,0.27-1.22,0.39c-0.84,0.25-1.67,0.51-2.51,0.77
		c-0.84,0.26-1.69,0.52-2.53,0.78c-0.84,0.26-1.69,0.52-2.53,0.78c-0.84,0.26-1.69,0.52-2.53,0.78c-0.84,0.26-1.69,0.52-2.53,0.78
		c-0.85,0.26-1.69,0.52-2.53,0.78c-0.85,0.26-1.69,0.52-2.53,0.78c-0.84,0.26-1.69,0.52-2.53,0.78c-0.84,0.26-1.69,0.52-2.53,0.78
		c-0.84,0.26-1.69,0.52-2.53,0.78c-0.84,0.26-1.69,0.52-2.53,0.77c-0.5,0.16-1,0.31-1.5,0.46c-1.09,0.33-1.33,0.65-1.47,0.81
		c-0.32,0.37-0.28,0.62-0.5,1.29C47.71,40.77,47.08,41.52,46.78,41.87z"/>
	<path class="st1" d="M21.34,19.17c-0.11-1.23-0.26-2.42-0.32-3.55c-0.05-0.87-0.08-1.71-0.08-2.56c0-2.89,0.32-5.67,1.24-8.35
		C22.34,4.25,22.5,4.03,22.55,4l0.21-0.04l0.6,0.09c4.15,1.06,7.35,3.17,9.76,6.58c0.69,0.98,1.43,1.86,2.42,2.52
		c0.99,0.67,2.21,1.03,3.56,1.03c0.37,0,0.75-0.03,1.15-0.07c1.71-0.21,3.45-0.31,5.19-0.31c2.03,0,4.07,0.13,6.09,0.38l0.57,0.03
		c1.02,0.02,1.95-0.43,2.53-0.96c0.58-0.53,0.93-1.08,1.23-1.48c2.57-3.49,5.41-6.21,9.38-7.32c1.42-0.42,2.31-0.65,2.37-0.62V3.49
		l-0.09,0.32l0.09,0.01V3.49l-0.09,0.32l0.15-0.59l-0.44,0.42l0.28,0.16l0.15-0.59l-0.44,0.42l0.07-0.07l-0.08,0.05l0.01,0.01
		l0.07-0.07l-0.08,0.05c0.07,0.07,0.38,0.83,0.84,2.04c0.96,2.43,0.73,5.27,1,8.34l1.48-0.14l-1.47-0.25
		c-0.34,2.02-0.27,3.88-0.39,5.57l2.96,0.21c0.13-1.9,0.07-3.65,0.36-5.29l0.03-0.2l-0.02-0.19c-0.27-2.66,0.05-5.84-1.18-9.11
		c-0.41-1.03-0.63-1.73-1-2.39c-0.19-0.33-0.45-0.69-0.88-0.98C68.53,0.96,68,0.85,67.6,0.86c-1.03,0.03-1.77,0.36-3.17,0.74
		c-4.87,1.37-8.23,4.71-10.96,8.42c-0.35,0.48-0.62,0.85-0.81,1.02l-0.55,0.21l-0.22-0.01c-2.13-0.26-4.29-0.4-6.45-0.4
		c-1.86,0-3.71,0.11-5.55,0.33l-0.79,0.05c-0.87-0.01-1.39-0.19-1.91-0.53c-0.52-0.34-1.05-0.92-1.64-1.75
		c-2.79-4-6.73-6.56-11.45-7.75c-0.46-0.12-0.9-0.19-1.34-0.19c-0.8-0.02-1.67,0.29-2.25,0.85c-0.58,0.56-0.88,1.22-1.12,1.91
		c-1.07,3.09-1.4,6.22-1.4,9.32c0,0.91,0.03,1.81,0.08,2.72c0.07,1.27,0.22,2.49,0.33,3.66L21.34,19.17"/>
</g>
</svg>
